<svg xmlns="http://www.w3.org/2000/svg" width="22.152" height="20.57" viewBox="0 0 22.152 20.57">
  <g id="verknüpft" transform="translate(-4.477 -4.463)">
    <path id="Vereinigungsmenge_1" data-name="Vereinigungsmenge 1" d="M5.387,21.714a4.429,4.429,0,0,1,.841-4.886c1.455-1.616,3.021-3.14,4.609-4.63a4.775,4.775,0,0,1,6.2-.119,1.311,1.311,0,0,1,.558,1.235,1.187,1.187,0,0,1-1.816.806,1.788,1.788,0,0,1-.25-.182,2.327,2.327,0,0,0-3.159.088c-1.446,1.382-2.87,2.789-4.244,4.242a2.247,2.247,0,0,0,.517,3.649,2.16,2.16,0,0,0,2.413-.309c.8-.679,1.541-1.431,2.291-2.169a.542.542,0,0,1,.685-.134,8.79,8.79,0,0,0,1.54.362,5.169,5.169,0,0,0,.851.007c-.1.12-.152.186-.212.245-1.1,1.1-2.18,2.222-3.313,3.288A4.787,4.787,0,0,1,9.6,24.533,4.509,4.509,0,0,1,5.387,21.714ZM14.1,17.96a1.561,1.561,0,0,1-.847-1.363,1.2,1.2,0,0,1,1.96-.866,2.639,2.639,0,0,0,1.682.685,2.572,2.572,0,0,0,1.771-.7c1.407-1.382,2.809-2.767,4.19-4.172A2.489,2.489,0,0,0,23.563,9a2.259,2.259,0,0,0-3.632-.984c-.824.688-1.569,1.471-2.335,2.227a.526.526,0,0,1-.65.127c-.77-.239-1.574-.364-2.417-.545a46.491,46.491,0,0,1,4-3.8A4.652,4.652,0,0,1,26.061,9,4.609,4.609,0,0,1,24.8,13.023c-1.481,1.54-2.987,3.059-4.531,4.536a4.864,4.864,0,0,1-3.353,1.288A4.726,4.726,0,0,1,14.1,17.96Z" transform="translate(0 0)" fill="#8b8b8b" stroke="rgba(0,0,0,0)" stroke-miterlimit="10" stroke-width="1"/>
  </g>
</svg>
