<svg xmlns="http://www.w3.org/2000/svg" width="26.276" height="26.243" viewBox="0 0 26.276 26.243">
  <g id="Komponente_138_1" data-name="Komponente 138 – 1" transform="translate(0 4.243)">
    <g id="Rechteck_691" data-name="Rechteck 691" fill="none" stroke="#28297d" stroke-width="2">
      <rect width="22" height="22" stroke="none"/>
      <rect x="1" y="1" width="20" height="20" fill="none"/>
    </g>
    <g id="ic_Bearbeiten-Edit" data-name="ic Bearbeiten-Edit" transform="translate(6.31)">
      <g id="Rectangle-2" transform="translate(-4.127 -3.148)" fill="#28297d">
        <path d="M 8.086301803588867 20.37565231323242 L 7.459861755371094 20.37199211120605 L 4.138561725616455 20.35261154174805 L 2.656401872634888 20.34397125244141 L 2.647341728210449 18.86181259155273 L 2.627031803131104 15.54051208496094 L 2.623201847076416 14.91382122039795 L 3.066341876983643 14.47068214416504 L 11.87729167938232 5.659721851348877 L 12.04019641876221 5.496816635131836 L 12.03953170776367 5.496151447296143 L 13.10061168670654 4.435491561889648 L 15.44989204406738 2.08713173866272 L 16.51070213317871 1.026741623878479 L 17.57115173339844 2.087491750717163 L 20.91183090209961 5.429101467132568 L 21.97219085693359 6.489761829376221 L 20.91168212890625 7.550271511077881 L 18.56333160400391 9.898621559143066 L 17.50267219543457 10.95928192138672 L 17.33930206298828 11.12265205383301 L 8.529272079467773 19.93268203735352 L 8.086301803588867 20.37565231323242 Z" stroke="none"/>
        <path d="M 16.51034164428711 3.148002624511719 L 14.16106128692627 5.49635124206543 L 17.50267028808594 8.837961196899414 L 19.85102081298828 6.489611625671387 L 16.51034164428711 3.148002624511719 M 12.93796062469482 6.720381736755371 L 4.12700080871582 15.53134155273438 L 4.147310256958008 18.85264205932617 L 7.468610763549805 18.87202072143555 L 16.27864074707031 10.06199169158936 L 12.93796062469482 6.720381736755371 M 16.51106071472168 -1.094518661499023 L 18.63196182250977 1.026971817016602 L 21.97264099121094 4.368581771850586 L 24.09337043762207 6.489912033081055 L 21.97234153747559 8.610931396484375 L 20.52098655700684 10.06228637695312 L 20.5209903717041 10.06229209899902 L 18.39996147155762 12.18331146240234 L 17.50267028808594 13.08060169219971 L 9.589930534362793 20.99334144592285 L 8.703990936279297 21.87928199768066 L 7.45111083984375 21.87197113037109 L 4.129810333251953 21.85259246826172 L 1.165491104125977 21.83529090881348 L 1.147371292114258 18.87098121643066 L 1.127059936523438 15.54968166351318 L 1.119390487670898 14.29631233215332 L 2.005680084228516 13.41002178192139 L 9.918886184692383 5.496816635131836 L 9.918001174926758 5.495931625366211 L 12.0401611328125 3.374610900878906 L 14.38944053649902 1.026262283325195 L 16.51106071472168 -1.094518661499023 Z" stroke="none" fill="#fff"/>
      </g>
    </g>
  </g>
</svg>
