<svg id="Kreis_mit_Icons" data-name="Kreis mit Icons" xmlns="http://www.w3.org/2000/svg" width="55" height="55" viewBox="0 0 55 55">
  <g id="Pfad_115" data-name="Pfad 115" fill="none">
    <path d="M27.5,0A27.5,27.5,0,1,1,0,27.5,27.5,27.5,0,0,1,27.5,0Z" stroke="none"/>
    <path d="M 27.5 5 C 24.46031761169434 5 21.51421356201172 5.594200134277344 18.7435188293457 6.766105651855469 C 16.06483459472656 7.899093627929688 13.6580696105957 9.522129058837891 11.59010696411133 11.59010696411133 C 9.522129058837891 13.6580696105957 7.899093627929688 16.06483459472656 6.766105651855469 18.7435188293457 C 5.594200134277344 21.51421356201172 5 24.46031761169434 5 27.5 C 5 30.53968238830566 5.594200134277344 33.48578643798828 6.766105651855469 36.25648498535156 C 7.899093627929688 38.93516540527344 9.522129058837891 41.3419303894043 11.59009552001953 43.40990447998047 C 13.6580696105957 45.47788238525391 16.06483459472656 47.10090637207031 18.7435188293457 48.23389434814453 C 21.51421356201172 49.40579986572266 24.46031761169434 50 27.5 50 C 30.53968238830566 50 33.48578643798828 49.40579986572266 36.25648498535156 48.23389434814453 C 38.93517684936523 47.10090637207031 41.3419303894043 45.47788238525391 43.40990447998047 43.40990447998047 C 45.47788238525391 41.3419303894043 47.10090637207031 38.93517684936523 48.23389434814453 36.25648498535156 C 49.40579986572266 33.48578643798828 50 30.53968238830566 50 27.5 C 50 24.46031761169434 49.40579986572266 21.51421356201172 48.23389434814453 18.7435188293457 C 47.10090637207031 16.06483459472656 45.47788238525391 13.6580696105957 43.40990447998047 11.59009552001953 C 41.3419303894043 9.522129058837891 38.93516540527344 7.899093627929688 36.25648498535156 6.766105651855469 C 33.48578643798828 5.594200134277344 30.53968238830566 5 27.5 5 M 27.5 0 C 42.68783569335938 0 55 12.31217575073242 55 27.5 C 55 42.68783569335938 42.68783569335938 55 27.5 55 C 12.31217575073242 55 0 42.68783569335938 0 27.5 C 0 12.31217575073242 12.31217575073242 0 27.5 0 Z" stroke="none" fill="#25b8cd"/>
  </g>
  <g id="ic_Checkbox-abgehakt" transform="translate(20.003 17.875)" opacity="0">
    <path id="Combined-Shape" d="M8.459,12.688v.846H0V9.3H4.229V0H8.459Z" transform="translate(9.57 0) rotate(45)" fill="#25b8cd"/>
  </g>
  <g id="verknüpft" transform="translate(11.265 13.876)" opacity="0">
    <path id="Vereinigungsmenge_1" data-name="Vereinigungsmenge 1" d="M.387,26.714a4.428,4.428,0,0,1,.841-4.886c1.455-1.616,3.02-3.139,4.609-4.629a4.773,4.773,0,0,1,6.2-.12,1.314,1.314,0,0,1,.559,1.236,1.186,1.186,0,0,1-1.816.806,1.85,1.85,0,0,1-.251-.182,2.327,2.327,0,0,0-3.158.088C5.921,20.409,4.5,21.816,3.123,23.27a2.246,2.246,0,0,0,.516,3.648,2.162,2.162,0,0,0,2.414-.309c.8-.678,1.54-1.431,2.291-2.169a.544.544,0,0,1,.685-.134,8.692,8.692,0,0,0,1.54.362,5.157,5.157,0,0,0,.851.008c-.1.119-.152.186-.212.244-1.1,1.1-2.181,2.222-3.313,3.288A4.786,4.786,0,0,1,4.6,29.533,4.509,4.509,0,0,1,.387,26.714ZM19.1,12.96a1.563,1.563,0,0,1-.846-1.363,1.2,1.2,0,0,1,1.959-.866,2.644,2.644,0,0,0,1.683.685,2.564,2.564,0,0,0,1.77-.7c1.408-1.381,2.81-2.767,4.19-4.172A2.489,2.489,0,0,0,28.563,4a2.259,2.259,0,0,0-3.632-.984c-.824.688-1.569,1.471-2.336,2.228a.528.528,0,0,1-.65.127c-.769-.24-1.574-.365-2.417-.545a46.618,46.618,0,0,1,3.994-3.8A4.652,4.652,0,0,1,31.061,4,4.606,4.606,0,0,1,29.8,8.023c-1.48,1.541-2.987,3.059-4.531,4.536a4.866,4.866,0,0,1-3.354,1.288A4.729,4.729,0,0,1,19.1,12.96Z" transform="translate(0 0)" fill="#8b8b8b" stroke="rgba(0,0,0,0)" stroke-miterlimit="10" stroke-width="1"/>
  </g>
</svg>
