<svg xmlns="http://www.w3.org/2000/svg" width="165.232" height="31.726" viewBox="0 0 165.232 31.726">
  <g id="Gruppe_395" data-name="Gruppe 395" transform="translate(-18.143 -18.142)">
    <path id="Pfad_559" data-name="Pfad 559" d="M28.718,27.213H18.143V48.364H39.293V37.788H28.718Z" transform="translate(0 1.504)" fill="#fff"/>
    <path id="Pfad_560" data-name="Pfad 560" d="M67.955,31.469H58.389V23.457H54.428V43.344h3.961V35.162h9.567v8.182h3.96V23.457h-3.96Z" transform="translate(6.016 0.881)" fill="#fff"/>
    <path id="Pfad_561" data-name="Pfad 561" d="M80.467,28.392c-4.116,0-6.955,2.955-6.955,7.287a6.8,6.8,0,0,0,7.139,7.2,8.34,8.34,0,0,0,5.862-2.087l-2.171-2.388a5.557,5.557,0,0,1-3.479,1.322,3.32,3.32,0,0,1-3.534-2.855h9.751a10.256,10.256,0,0,0,.072-1.25C87.138,31.332,84.427,28.392,80.467,28.392Zm-3.122,5.951a3.059,3.059,0,0,1,6.088,0Z" transform="translate(9.181 1.7)" fill="#fff"/>
    <path id="Pfad_562" data-name="Pfad 562" d="M99.06,30.282a5.031,5.031,0,0,0-4.115-1.89c-3.79,0-6.658,3.112-6.658,7.244s2.868,7.243,6.658,7.243A5.041,5.041,0,0,0,99.06,41v1.521h3.621V28.762H99.06Zm-3.434,9.147a3.542,3.542,0,0,1-3.549-3.792,3.557,3.557,0,1,1,7.1,0A3.535,3.535,0,0,1,95.626,39.429Z" transform="translate(11.63 1.7)" fill="#fff"/>
    <rect id="Rechteck_685" data-name="Rechteck 685" width="3.705" height="20.453" transform="translate(119.612 23.771)" fill="#fff"/>
    <path id="Pfad_563" data-name="Pfad 563" d="M161.327,28.636c-.446.034-1.554.034-2.431.034-1.291,0-1.985-.034-2.73-.034a4.036,4.036,0,0,0-.148,1.159,10.012,10.012,0,0,1,1.688.315c.049.612.083,1.307.083,2.284v.133c-.415.033-.828.05-1.175.05-2.25,0-3.559-1.987-3.559-4.569a4.478,4.478,0,0,1,1.174-3.194,5,5,0,0,1,2.22-.365,8.454,8.454,0,0,1,1.407.1,11.013,11.013,0,0,1,.2,1.7,3.15,3.15,0,0,0,1.471.117,11.185,11.185,0,0,0,.381-3.194,9.274,9.274,0,0,0-3.275-.5,6.024,6.024,0,0,0-6.14,5.992c0,3.1,1.843,5.594,5.118,5.594a13.84,13.84,0,0,0,4.529-.909v-.961c0-.977.016-1.672.065-2.284a4.529,4.529,0,0,0,1.224-.315A4.349,4.349,0,0,0,161.327,28.636Z" transform="translate(21.944 0.752)" fill="#fff"/>
    <path id="Pfad_564" data-name="Pfad 564" d="M147.06,22.853a11.19,11.19,0,0,0-2.86.281l-3.39,9.435a6.336,6.336,0,0,1-1.323.314,4.673,4.673,0,0,0,.133,1.159c.529,0,1.159-.034,1.985-.034.711,0,1.637,0,2.314.034a4.388,4.388,0,0,0,.1-1.159l-1.472-.281.628-1.821h1.109c.778,0,2.247.034,3.091.084L148,32.6l-1.57.281a4.566,4.566,0,0,0,.133,1.159c.76,0,1.2-.034,2.223-.034.909,0,2.323,0,2.935.034a4.293,4.293,0,0,0,.1-1.159,4.532,4.532,0,0,0-1.223-.314Zm-3.405,6.52L145.16,25h.1l1.58,4.371Z" transform="translate(20.12 0.78)" fill="#fff"/>
    <path id="Pfad_565" data-name="Pfad 565" d="M120.158,39.958c-1.149,0-2.059-.625-2.059-2.343V32.587h4.983v-3.3H118.1V25.2h-3.7v4.091H111.74v3.3H114.4v5.325c0,3.566,1.746,5.5,5.152,5.5A7.677,7.677,0,0,0,124.1,41.96l-1.363-2.9A5.387,5.387,0,0,1,120.158,39.958Z" transform="translate(15.519 1.17)" fill="#fff"/>
    <path id="Pfad_566" data-name="Pfad 566" d="M133.132,29.293a4.616,4.616,0,0,0-3.946,1.847V22.958h-3.7V43.427h3.7V35.884a2.822,2.822,0,0,1,2.91-3.112c1.688,0,2.683,1.094,2.683,3.082v7.572h3.7V34.663A5.125,5.125,0,0,0,133.132,29.293Z" transform="translate(17.797 0.799)" fill="#fff"/>
    <path id="Pfad_567" data-name="Pfad 567" d="M27.214,18.142V28.718H37.789V39.292H48.365V18.142Z" transform="translate(1.504 0)" fill="#25b8cd"/>
  </g>
</svg>
