<svg id="Komponente_1_2" data-name="Komponente 1 – 2" xmlns="http://www.w3.org/2000/svg" width="283.447" height="145.508" viewBox="0 0 283.447 145.508">
  <g id="Gruppe_2" data-name="Gruppe 2" transform="translate(0 96.738)">
    <path id="Pfad_10" data-name="Pfad 10" d="M49.33,73.378H27.272V54.905H18.141v45.852h9.131V81.893H49.33v18.864h9.131V54.905H49.33Z" transform="translate(-18.141 -52.808)" fill="#fff"/>
    <path id="Pfad_11" data-name="Pfad 11" d="M53.259,59.839c-9.491,0-16.034,6.814-16.034,16.8s6.742,16.607,16.462,16.607c5.333,0,9.916-1.508,13.516-4.814l-5.008-5.5a12.828,12.828,0,0,1-8.018,3.046c-4.024,0-7.234-2-8.147-6.583H68.511a24.865,24.865,0,0,0,.164-2.882C68.643,66.618,62.391,59.839,53.259,59.839Zm-7.2,13.725c.753-3.93,3.11-6.355,7.134-6.355,3.664,0,6.121,2.293,6.906,6.355Z" transform="translate(14.075 -44.479)" fill="#fff"/>
    <path id="Pfad_12" data-name="Pfad 12" d="M76.84,64.2a11.608,11.608,0,0,0-9.489-4.357C58.613,59.839,52,67.013,52,76.545s6.613,16.7,15.351,16.7a11.625,11.625,0,0,0,9.489-4.325v3.505h8.346V60.691H76.84ZM68.921,85.289c-5.005,0-8.182-3.9-8.182-8.744S63.916,67.8,68.921,67.8c4.876,0,8.182,3.731,8.182,8.744S73.8,85.289,68.921,85.289Z" transform="translate(39.016 -44.479)" fill="#fff"/>
    <rect id="Rechteck_5" data-name="Rechteck 5" width="8.542" height="47.162" transform="translate(136.426 0.788)" fill="#fff"/>
    <path id="Pfad_13" data-name="Pfad 13" d="M139.191,67.864c-1.03.081-3.583.081-5.607.081-2.973,0-4.575-.081-6.293-.081a9.244,9.244,0,0,0-.344,2.675,22.723,22.723,0,0,1,3.892.726c.116,1.411.191,3.011.191,5.266v.3c-.954.078-1.909.116-2.707.116-5.188,0-8.209-4.578-8.209-10.532a10.331,10.331,0,0,1,2.71-7.368c.5-.417,2.677-.839,5.118-.839a19.172,19.172,0,0,1,3.242.228,25.021,25.021,0,0,1,.457,3.927,7.261,7.261,0,0,0,3.392.271,25.791,25.791,0,0,0,.879-7.365,21.315,21.315,0,0,0-7.551-1.148A13.893,13.893,0,0,0,114.2,67.944c0,7.134,4.25,12.9,11.8,12.9a31.9,31.9,0,0,0,10.44-2.1V76.53c0-2.255.04-3.855.153-5.266a10.57,10.57,0,0,0,2.822-.726A10.059,10.059,0,0,0,139.191,67.864Z" transform="translate(144.017 -54.125)" fill="#fff"/>
    <path id="Pfad_14" data-name="Pfad 14" d="M120.662,54.313a25.669,25.669,0,0,0-6.594.648l-7.817,21.754a14.6,14.6,0,0,1-3.051.72,10.56,10.56,0,0,0,.306,2.675c1.22,0,2.669-.078,4.575-.078,1.64,0,3.777,0,5.338.078a10.149,10.149,0,0,0,.231-2.675l-3.395-.645,1.449-4.2h2.556c1.79,0,5.18.075,7.126.188l1.449,4.008-3.623.645a10.56,10.56,0,0,0,.306,2.675c1.753,0,2.763-.078,5.126-.078,2.1,0,5.36,0,6.771.078a9.929,9.929,0,0,0,.228-2.675,10.577,10.577,0,0,0-2.82-.72ZM112.81,69.348l3.47-10.075h.231l3.642,10.075Z" transform="translate(125.444 -53.843)" fill="#fff"/>
    <path id="Pfad_15" data-name="Pfad 15" d="M94.863,90.678c-2.65,0-4.747-1.443-4.747-5.4v-11.6h11.489v-7.6H90.116V56.647H81.571v9.432H75.453v7.6h6.118V85.96c0,8.22,4.029,12.677,11.884,12.677a17.707,17.707,0,0,0,10.508-3.344l-3.145-6.68A12.377,12.377,0,0,1,94.863,90.678Z" transform="translate(78.605 -49.868)" fill="#fff"/>
    <path id="Pfad_16" data-name="Pfad 16" d="M106.836,69.012c-3.468,0-6.841,1.116-9.1,4.261V54.4H89.194v47.2h8.543V84.21c0-4.779,3.046-7.174,6.709-7.174,3.892,0,6.185,2.527,6.185,7.11V101.6h8.543V81.393C119.174,74.025,114.034,69.012,106.836,69.012Z" transform="translate(101.801 -53.652)" fill="#fff"/>
  </g>
  <path id="Pfad_17" data-name="Pfad 17" d="M81.642,27.208H57.258V75.973h48.768V51.592H81.642Z" transform="translate(47.891 -2.824)" fill="#fff"/>
  <path id="Pfad_18" data-name="Pfad 18" d="M66.329,18.137V42.521H90.713V66.9H115.1V18.137Z" transform="translate(63.204 -18.137)" fill="#25b8cd"/>
</svg>
