<svg id="Komponente_4_3" data-name="Komponente 4 – 3" xmlns="http://www.w3.org/2000/svg" width="22.001" height="28" viewBox="0 0 22.001 28">
  <path id="Pfad_94" data-name="Pfad 94" d="M17.126,28H2V0H24V21H22.626V1.4H3.375V26.6H17.126Zm2.256-5.484a4.058,4.058,0,0,1-2.97,1.284,4.1,4.1,0,0,1-3.552-2.1h2.89V20.3H12.358a3.529,3.529,0,0,1,0-1.4h3.393V17.5h-2.89a4.061,4.061,0,0,1,6.416-.923l.957-1.007A5.418,5.418,0,0,0,16.413,14a5.5,5.5,0,0,0-5.089,3.5H8.875v1.4h2.108a5.611,5.611,0,0,0-.07.7,5.611,5.611,0,0,0,.07.7H8.875v1.4h2.449a5.5,5.5,0,0,0,5.089,3.5,5.407,5.407,0,0,0,3.957-1.711Z" transform="translate(-2)" fill="#8b8b8b"/>
  <path id="Pfad_95" data-name="Pfad 95" d="M14,20h4V16H17v3H14Z" transform="translate(4 8)" fill="#8b8b8b"/>
  <rect id="Rechteck_8" data-name="Rechteck 8" width="6" height="1" transform="translate(11 3)" fill="#8b8b8b"/>
  <rect id="Rechteck_9" data-name="Rechteck 9" width="6" height="1" transform="translate(11.201 9.279)" fill="#8b8b8b"/>
  <path id="Pfad_96" data-name="Pfad 96" d="M7.979,6.384l-.707-.707L6.125,6.823l-.4-.4-.707.707,1.1,1.1Z" transform="translate(-0.61 2.604)" fill="#8b8b8b"/>
  <path id="Pfad_97" data-name="Pfad 97" d="M7.979,2.854l-.707-.707L6.125,3.293l-.4-.4L5.022,3.6l1.1,1.1Z" transform="translate(-0.61)" fill="#8b8b8b"/>
</svg>
