<svg id="Gruppe_72" data-name="Gruppe 72" xmlns="http://www.w3.org/2000/svg" width="50.136" height="62.667" viewBox="0 0 50.136 62.667">
  <path id="Pfad_94" data-name="Pfad 94" d="M36.47,62.667H2V0H52.136V47H49V3.133H5.133v56.4H36.47Zm5.142-12.273A9.356,9.356,0,0,1,26.75,48.567h6.586V45.433H25.6a7.76,7.76,0,0,1,0-3.133h7.733V39.167H26.75A9.352,9.352,0,0,1,41.37,37.1l2.181-2.253a12.516,12.516,0,0,0-20.3,4.318h-5.58V42.3h4.8a12.341,12.341,0,0,0-.16,1.567,12.342,12.342,0,0,0,.16,1.567h-4.8v3.133h5.58a12.513,12.513,0,0,0,20.614,4Z" transform="translate(-2)" fill="#1c0d4b"/>
  <path id="Pfad_95" data-name="Pfad 95" d="M14,28.533H26.534V16H23.4v9.4H14Z" transform="translate(23.602 34.133)" fill="#e45d65"/>
  <rect id="Rechteck_8" data-name="Rechteck 8" width="19" height="3" transform="translate(21.867 9)" fill="#1c0d4b"/>
  <rect id="Rechteck_9" data-name="Rechteck 9" width="18.8" height="3.133" transform="translate(21.936 20.46)" fill="#1c0d4b"/>
  <path id="Pfad_96" data-name="Pfad 96" d="M14.288,7.892,12.072,5.677l-3.6,3.591L7.238,8.027,5.022,10.242,8.477,13.7Z" transform="translate(4.448 12.11)" fill="#1c0d4b"/>
  <path id="Pfad_97" data-name="Pfad 97" d="M14.288,4.362,12.072,2.147l-3.6,3.591L7.238,4.5,5.022,6.712l3.455,3.459Z" transform="translate(4.448 4.58)" fill="#1c0d4b"/>
</svg>
