<svg xmlns="http://www.w3.org/2000/svg" width="45" height="45" viewBox="0 0 45 45">
  <g id="Gruppe_602" data-name="Gruppe 602" transform="translate(-20)">
    <g id="Ellipse_1" data-name="Ellipse 1" transform="translate(20)" fill="none" stroke="#8b8b8b" stroke-width="1">
      <circle cx="22.5" cy="22.5" r="22.5" stroke="none"/>
      <circle cx="22.5" cy="22.5" r="22" fill="none"/>
    </g>
    <g id="Komponente_10_2" data-name="Komponente 10 – 2" transform="translate(32.565 9.513)">
      <g id="Gruppe_11" data-name="Gruppe 11" transform="translate(0 16.466)">
        <path id="Pfad_27" data-name="Pfad 27" d="M-1518.325,760.328h-14.8v-4.6h18.276v1.153h-17.123v2.291h13.644Z" transform="translate(1533.122 -755.73)" fill="#112466"/>
      </g>
      <g id="Gruppe_12" data-name="Gruppe 12" transform="translate(16.128 16.429)">
        <path id="Pfad_28" data-name="Pfad 28" d="M-1486.609,760.269h-4.567v-1.153h3.413v-3.482h1.153Z" transform="translate(1491.176 -755.633)" fill="#da4552"/>
      </g>
      <g id="Gruppe_13" data-name="Gruppe 13" transform="translate(2.183 1.257)">
        <path id="Pfad_29" data-name="Pfad 29" d="M-1511.218,730.151h-1.154v-5.22a8.263,8.263,0,0,0-1.284-4.518,6.413,6.413,0,0,0-5.676-3.087,6.406,6.406,0,0,0-5.68,3.1,8.279,8.279,0,0,0-1.279,4.51v5.211h-1.153v-5.211a9.43,9.43,0,0,1,1.463-5.136,7.593,7.593,0,0,1,6.65-3.632,7.6,7.6,0,0,1,6.644,3.613,9.413,9.413,0,0,1,1.47,5.146Z" transform="translate(1527.445 -716.172)" fill="#112466"/>
      </g>
      <g id="Gruppe_14" data-name="Gruppe 14" transform="translate(9.188)">
        <circle id="Ellipse_5" data-name="Ellipse 5" cx="1.117" cy="1.117" r="1.117" fill="#112466"/>
      </g>
      <g id="Gruppe_15" data-name="Gruppe 15" transform="translate(8.031 20.691)">
        <path id="Pfad_30" data-name="Pfad 30" d="M-1510.012,769.094a2.305,2.305,0,0,1-2.222-2.376h1.153a1.155,1.155,0,0,0,1.069,1.223,1.155,1.155,0,0,0,1.068-1.223h1.153A2.306,2.306,0,0,1-1510.012,769.094Z" transform="translate(1512.234 -766.718)" fill="#112466"/>
      </g>
    </g>
  </g>
</svg>
