<svg xmlns="http://www.w3.org/2000/svg" width="45" height="45" viewBox="0 0 45 45">
  <g id="Gruppe_601" data-name="Gruppe 601" transform="translate(-20)">
    <g id="Ellipse_1" data-name="Ellipse 1" transform="translate(20)" fill="none" stroke="#8b8b8b" stroke-width="1">
      <circle cx="22.5" cy="22.5" r="22.5" stroke="none"/>
      <circle cx="22.5" cy="22.5" r="22" fill="none"/>
    </g>
    <g id="Komponente_4_2" data-name="Komponente 4 – 2" transform="translate(32.565 9.513)">
      <path id="Pfad_94" data-name="Pfad 94" d="M15.751,25H2V0H22V18.75h-1.25V1.25H3.25v22.5h12.5ZM17.8,20.1a3.732,3.732,0,0,1-5.929-.729H14.5v-1.25H11.416a3.1,3.1,0,0,1,0-1.25H14.5v-1.25H11.874a3.731,3.731,0,0,1,5.832-.824l.87-.9a4.993,4.993,0,0,0-8.1,1.722H8.25v1.25h1.916a4.923,4.923,0,0,0-.064.625,4.923,4.923,0,0,0,.064.625H8.25v1.25h2.226a4.992,4.992,0,0,0,8.224,1.6Z" transform="translate(-2)" fill="#1c0d4b"/>
      <path id="Pfad_95" data-name="Pfad 95" d="M14,20h4V16H17v3H14Z" transform="translate(2 5)" fill="#e45d65"/>
      <rect id="Rechteck_8" data-name="Rechteck 8" width="6" height="1" transform="translate(9.801 3)" fill="#1c0d4b"/>
      <rect id="Rechteck_9" data-name="Rechteck 9" width="6" height="1" transform="translate(9.801 8.248)" fill="#1c0d4b"/>
      <path id="Pfad_96" data-name="Pfad 96" d="M7.979,6.384l-.707-.707L6.125,6.823l-.4-.4-.707.707,1.1,1.1Z" transform="translate(-1.073 1.628)" fill="#1c0d4b"/>
      <path id="Pfad_97" data-name="Pfad 97" d="M7.979,2.854l-.707-.707L6.125,3.293l-.4-.4L5.022,3.6l1.1,1.1Z" transform="translate(-1.073)" fill="#1c0d4b"/>
    </g>
  </g>
</svg>
